# Blender v2.80 (sub 75) OBJ File: ''
# www.blender.org
mtllib tris.mtl
o teapot
v 3.000000 0.00000 1.00000
v 3.000000 -0.000000 -0.000000
v 2.000000 0.00000 1.00000
v 2.000000 -0.000000 -0.000000
v 1.000000 -0.000000 0.500000
v 1.000000 -0.000000 -0.000000
v 0.000000 -0.000000 -0.000000
v -3.000000 0.00000 1.00000
v -2.000000 0.00000 1.00000
v -1.000000 -0.000000 0.500000
v -3.000000 -0.000000 -0.000000
v -2.000000 -0.000000 -0.000000
v -1.000000 -0.000000 -0.000000
v -3.000000 -0.000000 -1.000000
v -2.000000 -0.000000 -1.000000
v -1.000000 -0.000000 -0.500000
v 3.000000 -0.000000 -1.000000
v 2.000000 -0.000000 -1.000000
v 1.000000 -0.000000 -0.500000
vn 0.0000 -1.0000 0.0000
usemtl Default_OBJ
s 1
#f 2//1 1//1 3//1
#f 3//1 4//1 2//1
#f 4//1 3//1 5//1
#f 5//1 6//1 4//1
#f 6//1 5//1 7//1
#f 8//1 11//1 12//1
#f 12//1 9//1 8//1
#f 9//1 12//1 13//1
#f 13//1 10//1 9//1
#f 10//1 13//1 7//1
#f 11//1 14//1 15//1
#f 15//1 12//1 11//1
#f 12//1 15//1 16//1
#f 16//1 13//1 12//1
#f 13//1 16//1 7//1
#f 17//1 2//1 4//1
f 4//1 18//1 17//1
#f 18//1 4//1 6//1
#f 6//1 19//1 18//1
#f 19//1 6//1 7//1
